<svg xmlns="http://www.w3.org/2000/svg" viewBox="0 0 64 64" role="img" aria-label="DataOps">
  <rect width="64" height="64" rx="14" fill="#042F2E"/>
  <g transform="translate(12 12)">
    <!-- Data Pipeline Infinity Curve -->
    <path d="M12 20C12 14 6 14 6 20C6 26 12 26 20 20C28 14 34 14 34 20C34 26 28 26 20 20" fill="none" stroke="#14B8A6" stroke-width="2.5" stroke-linecap="round"/>
    <!-- Left Data Cylinders -->
    <ellipse cx="9" cy="18" rx="4" ry="2" fill="#0F766E" stroke="#5EEAD4" stroke-width="1"/>
    <path d="M5 18V22C5 23 7 24 9 24C11 24 13 23 13 22V18" fill="none" stroke="#5EEAD4" stroke-width="1"/>
    <!-- Right Quality Check Shield -->
    <circle cx="31" cy="20" r="4.5" fill="#0F766E" stroke="#34D399" stroke-width="1.2"/>
    <path d="M29 20L30.5 21.5L33 19" fill="none" stroke="#34D399" stroke-width="1.5" stroke-linecap="round" stroke-linejoin="round"/>
  </g>
</svg>